<?xml version="1.0" encoding="UTF-8"?><svg id="Layer_1" xmlns="http://www.w3.org/2000/svg" viewBox="0 0 1025.99 1025.99"><path d="M649.03,437.72h0s0,0,0,0c-10.55-1.34-21.3-2.03-32.21-2.03h-207.66c-54.18,0-98.11-43.92-98.11-98.11s43.92-98.11,98.11-98.11h354.95l124.05-154.61h-479c-139.57,0-252.72,113.15-252.72,252.72,0,121.01,85.06,222.14,198.65,246.9,0,0,0,0,0,0h.08c17.4,3.79,35.45,5.81,53.99,5.81h207.66c54.18,0,98.11,43.92,98.11,98.11s-43.92,98.11-98.11,98.11h-354.95l-124.05,154.61h479c139.57,0,252.72-113.15,252.72-252.72,0-128.66-96.15-234.87-220.51-250.69Z"/></svg>