<svg width="728" height="280" viewBox="0 0 728 280" xmlns="http://www.w3.org/2000/svg"><mask id="satori_om-id"><rect x="0" y="0" width="728" height="280" fill="#fff"/></mask><mask id="satori_om-id-0"><rect x="0" y="0" width="280" height="280" fill="#fff"/></mask><path x="0" y="0" width="280" height="280" fill="transparent" d="M60,0 h160 a60,60 0 0 1 60,60 v160 a60,60 0 0 1 -60,60 h-160 a60,60 0 0 1 -60,-60 v-160 a60,60 0 0 1 60,-60"/><clipPath id="satori_cp-id-0-0"><rect x="40" y="40" width="200" height="200"/></clipPath><mask id="satori_om-id-0-0"><rect x="40" y="40" width="200" height="200" fill="#fff"/></mask><image x="40" y="40" width="200" height="200" href="data:image/svg+xml;utf8,%3Csvg  fill=%22none%22 xmlns=%22http://www.w3.org/2000/svg%22 width=%22200%22 height=%22200%22 viewBox=%220 0 800 800%22%3E%3Cpath d=%22M572.881 462.223c-12.712 43.22-290.678 105.932-394.068 83.898l-48.305-10.169 48.305-78.814 68.644-104.237 73.729-106.78 251.695-127.119 78.814-22.881 17.796 17.796h10.17c17.796 35.593 3.945 147.458-12.712 195.763-25.424 73.729-124.576 96.61-177.966 114.407-4.064 1.355 96.61-5.085 83.898 38.136Z%22 fill=%22%23c8b2ee%22 stroke=%22%231e1e1e%22 stroke-width=%2235%22 stroke-linecap=%22round%22%3E%3C/path%3E%3Cpath d=%22M700 96.111c-162.712-4.237-510.508 111.356-600 607.627%22 stroke=%22%231e1e1e%22 stroke-width=%2275%22 stroke-linecap=%22round%22%3E%3C/path%3E%3C/svg%3E" preserveAspectRatio="none" clip-path="url(#satori_cp-id-0-0)" mask="url(#satori_om-id-0-0)"/><mask id="satori_om-id-0-0-0"><rect x="40" y="40" width="0" height="200" fill="#fff"/></mask><mask id="satori_om-id-0-0-1"><rect x="40" y="40" width="0" height="200" fill="#fff"/></mask><mask id="satori_om-id-1"><rect x="336" y="65" width="389" height="150" fill="#fff"/></mask><g  ><path fill="#0a0a0a" d="M366.9 195L347.0 195L347.0 85.9L369.1 85.9L406.8 146.0Q409.2 149.7 411.8 154.5Q414.4 159.2 417.3 165.0Q420.2 170.8 422.9 177.9L422.9 177.9L420.7 177.9Q420.2 171.8 419.8 165.3Q419.4 158.8 419.2 153.0Q419.1 147.2 419.1 143.1L419.1 143.1L419.1 85.9L438.9 85.9L438.9 195L416.7 195L382.7 140.9Q379.4 135.7 376.6 130.6Q373.7 125.6 370.4 119.2Q367.1 112.8 362.4 103.8L362.4 103.8L365.2 103.8Q365.7 111.8 366.0 118.9Q366.4 126.1 366.7 131.7Q366.9 137.4 366.9 140.8L366.9 140.8L366.9 195ZM492.5 196.7L492.5 196.7Q480.6 196.7 471.8 191.4Q463.0 186.1 458.2 176.6Q453.4 167.1 453.4 154.5L453.4 154.5Q453.4 141.8 458.2 132.2Q463.0 122.6 471.8 117.4Q480.6 112.1 492.5 112.1L492.5 112.1Q504.5 112.1 513.3 117.4Q522.1 122.6 526.9 132.2Q531.7 141.8 531.7 154.5L531.7 154.5Q531.7 167.1 526.9 176.6Q522.1 186.1 513.3 191.4Q504.5 196.7 492.5 196.7ZM492.5 181.2L492.5 181.2Q499.2 181.2 503.6 177.6Q508.0 174.1 510.2 168.0Q512.4 161.9 512.4 154.4L512.4 154.4Q512.4 146.9 510.2 140.8Q508.0 134.7 503.6 131.1Q499.2 127.5 492.5 127.5L492.5 127.5Q485.9 127.5 481.5 131.1Q477.1 134.7 475.0 140.8Q472.8 146.8 472.8 154.4L472.8 154.4Q472.8 161.9 475.0 168.0Q477.1 174.1 481.5 177.6Q485.9 181.2 492.5 181.2ZM536.7 113.1L583.2 113.1L583.2 128.1L536.7 128.1L536.7 113.1ZM548.3 173.5L548.3 93.6L567.4 93.6L567.4 171.9Q567.4 176.4 569.3 178.5Q571.2 180.6 575.5 180.6L575.5 180.6Q576.8 180.6 579.0 180.2Q581.1 179.9 582.5 179.6L582.5 179.6L585.5 194.3Q582.3 195.3 579.0 195.7Q575.7 196.1 572.7 196.1L572.7 196.1Q560.9 196.1 554.6 190.2Q548.3 184.4 548.3 173.5L548.3 173.5ZM614.3 195L595.3 195L595.3 113.1L613.7 113.1L613.7 126.8L614.6 126.8Q616.8 119.7 622.3 115.9Q627.8 112.0 634.8 112.0L634.8 112.0Q636.4 112.0 638.4 112.2Q640.4 112.3 641.8 112.5L641.8 112.5L641.8 130.0Q640.6 129.7 638.0 129.4Q635.3 129.1 632.8 129.1L632.8 129.1Q627.5 129.1 623.3 131.4Q619.1 133.6 616.7 137.6Q614.3 141.6 614.3 146.8L614.3 146.8L614.3 195ZM674.7 196.7L674.7 196.7Q666.9 196.7 660.7 193.9Q654.5 191.0 650.9 185.6Q647.3 180.1 647.3 172.0L647.3 172.0Q647.3 165.0 649.9 160.5Q652.5 156.0 656.9 153.3Q661.4 150.5 666.9 149.2Q672.5 147.8 678.5 147.2L678.5 147.2Q685.6 146.4 690.1 145.8Q694.5 145.2 696.6 143.9Q698.7 142.6 698.7 139.8L698.7 139.8L698.7 139.4Q698.7 135.4 697.1 132.6Q695.5 129.7 692.3 128.2Q689.1 126.7 684.4 126.7L684.4 126.7Q679.7 126.7 676.2 128.2Q672.7 129.7 670.5 132.0Q668.3 134.4 667.3 137.1L667.3 137.1L649.6 133.5Q652.1 126.2 657.1 121.5Q662.2 116.8 669.2 114.4Q676.1 112.1 684.4 112.1L684.4 112.1Q690.1 112.1 696.0 113.4Q701.9 114.8 706.8 118.0Q711.7 121.2 714.7 126.7Q717.8 132.1 717.8 140.3L717.8 140.3L717.8 195L699.5 195L699.5 183.7L698.8 183.7Q696.9 187.2 693.8 190.1Q690.6 193.1 685.9 194.9Q681.1 196.7 674.7 196.7ZM679.6 182.5L679.6 182.5Q685.5 182.5 689.8 180.2Q694.1 177.9 696.5 174.0Q698.9 170.2 698.9 165.6L698.9 165.6L698.9 156.0Q697.9 156.7 695.7 157.4Q693.4 158.0 690.7 158.5Q687.9 159.0 685.3 159.4Q682.6 159.8 680.8 160.0L680.8 160.0Q676.5 160.6 673.1 161.9Q669.6 163.2 667.7 165.6Q665.7 168.0 665.7 171.8L665.7 171.8Q665.7 175.3 667.5 177.7Q669.3 180.1 672.4 181.3Q675.6 182.5 679.6 182.5Z "/></g></svg>